<?xml version="1.0" encoding="iso-8859-1"?>
<!-- Generator: Adobe Illustrator 19.0.0, SVG Export Plug-In . SVG Version: 6.00 Build 0)  -->
<svg xmlns="http://www.w3.org/2000/svg" xmlns:xlink="http://www.w3.org/1999/xlink" version="1.1" id="Layer_1" x="0px" y="0px" viewBox="0 0 480 480" style="enable-background:new 0 0 480 480;" xml:space="preserve" width="512px" height="512px">
<g id="XMLID_231_">
	<g>
		<g>
			<path d="M440,360h-65.863c-10.619-10.6-47.602-47.512-69.818-69.621C291.114,277.237,273.579,270,254.946,270H220     c-5.523,0-10,4.478-10,10v80h-64.338l-21.507-35.845c-5.238-8.731-14.818-14.155-25-14.155C83.079,310,70,323.078,70,339.154V360     H40c-22.056,0-40,17.944-40,40c0,22.056,17.944,40,40,40h20c0,22.056,17.944,40,40,40c22.056,0,40-17.944,40-40h200     c0,22.056,17.944,40,40,40c22.056,0,40-17.944,40-40h20c22.056,0,40-17.944,40-40C480,377.944,462.056,360,440,360z M230,290     h24.946c13.31,0,25.834,5.169,35.266,14.555c15.999,15.922,39.664,39.529,55.614,55.445H230V290z M90,339.154     c0-5.048,4.107-9.154,9.155-9.154c3.197,0,6.205,1.703,7.85,4.445L122.338,360H90V339.154z M100,460c-11.028,0-20-8.972-20-20     c0-2.273,0.381-4.459,1.083-6.496c0.041-0.109,0.079-0.219,0.116-0.328C83.995,425.497,91.368,420,100,420     s16.005,5.497,18.801,13.176c0.037,0.109,0.076,0.219,0.116,0.328c0.702,2.037,1.083,4.223,1.083,6.496     C120,451.028,111.028,460,100,460z M380,460c-11.028,0-20-8.972-20-20c0-2.273,0.381-4.459,1.083-6.496     c0.041-0.109,0.079-0.219,0.116-0.328C363.995,425.497,371.368,420,380,420c8.632,0,16.005,5.497,18.801,13.176     c0.037,0.109,0.076,0.219,0.116,0.328c0.702,2.037,1.083,4.223,1.083,6.496C400,451.028,391.028,460,380,460z M440,420h-25.368     c-6.926-11.947-19.856-20-34.632-20s-27.706,8.053-34.632,20H134.632c-6.926-11.947-19.856-20-34.632-20s-27.706,8.053-34.632,20     H40c-11.028,0-20-8.972-20-20s8.972-20,20-20h99.836c0.115,0.002,0.231,0.002,0.347,0H440c11.028,0,20,8.972,20,20     S451.028,420,440,420z" fill="#006DF0"/>
			<path d="M40,263.846h110c11.028,0,20,8.972,20,20s-8.972,20-20,20c-5.523,0-10,4.478-10,10c0,5.522,4.477,10,10,10     c22.056,0,40-17.944,40-40c0-22.056-17.944-40-40-40H40c-11.028,0-20-8.972-20-20s8.972-20,20-20h131.154     c24.18,0,45.035-15.784,51.696-38.733c4.182-1.128,8.107-3.149,11.473-5.954l28.664-23.887l30.437,25.363     c4.271,3.56,9.684,5.52,15.243,5.52c5.559,0,10.973-1.96,15.243-5.519l44.635-37.196c9.61-8.009,15.122-19.776,15.122-32.286     c0-24.813-20.187-44.999-45-44.999c-6.856,0-13.538,1.597-19.565,4.517C314.116,21.927,288.994,0,258.846,0     C242.25,0,226.402,6.883,215,18.56C203.598,6.883,187.75,0,171.154,0C137.434,0,110,27.434,110,61.154     c0,16.908,7.45,32.814,20.44,43.641l65.236,54.363c2.022,1.686,4.248,3.088,6.609,4.184     c-5.232,12.315-17.318,20.504-31.132,20.504H40c-22.056,0-40,17.944-40,40C0,245.902,17.944,263.846,40,263.846z M308.667,83.122     c3.506,0,6.757-1.837,8.566-4.84c4.574-7.595,12.587-12.128,21.434-12.128c13.785,0,25,11.215,25,25     c0,6.556-2.889,12.723-7.925,16.92l-44.635,37.197c-1.368,1.138-3.512,1.139-4.878-0.001l-44.635-37.195     c-5.037-4.198-7.926-10.365-7.926-16.922c0-13.784,11.215-24.999,25-24.999c8.848,0,16.86,4.533,21.434,12.127     C301.909,81.285,305.16,83.122,308.667,83.122z M143.244,89.43C134.827,82.416,130,72.109,130,61.153     C130,38.461,148.461,20,171.154,20c14.563,0,27.752,7.461,35.28,19.959c1.809,3.003,5.06,4.84,8.566,4.84s6.757-1.837,8.566-4.84     C231.094,27.461,244.283,20,258.846,20c19.155,0,35.296,13.155,39.862,30.905c-6.151-3.069-13.005-4.751-20.042-4.751     c-24.813,0-45,20.187-45,45c0,11.893,4.982,23.114,13.731,31.074l-25.878,21.564c-1.827,1.522-4.142,2.361-6.52,2.361     s-4.692-0.839-6.52-2.361L143.244,89.43z" fill="#006DF0"/>
		</g>
	</g>
</g>
<g>
</g>
<g>
</g>
<g>
</g>
<g>
</g>
<g>
</g>
<g>
</g>
<g>
</g>
<g>
</g>
<g>
</g>
<g>
</g>
<g>
</g>
<g>
</g>
<g>
</g>
<g>
</g>
<g>
</g>
</svg>
