<svg xmlns="http://www.w3.org/2000/svg" width="13" height="13" viewBox="0 0 13 13">
  <defs>
    <style>
      .cls-1 {
        fill: #fff;
        fill-rule: evenodd;
      }
    </style>
  </defs>
  <path id="Фигура_14_copy_2" data-name="Фигура 14 copy 2" class="cls-1" d="M1400.49,5131h-7.98a2.512,2.512,0,0,0-2.51,2.51v7.98a2.518,2.518,0,0,0,2.51,2.51h7.98a2.518,2.518,0,0,0,2.51-2.51v-7.98A2.512,2.512,0,0,0,1400.49,5131Zm0.72,1.5h0.29v2.2l-2.2.01-0.01-2.21h1.92Zm-6.57,3.66a2.29,2.29,0,0,1,4.15,1.34A2.29,2.29,0,1,1,1394.64,5136.16Zm7.09,5.33a1.233,1.233,0,0,1-1.24,1.24h-7.98a1.242,1.242,0,0,1-1.25-1.24v-5.33h1.95a3.56,3.56,0,1,0,6.58,0h1.94v5.33Z" transform="translate(-1390 -5131)"/>
</svg>
