<svg xmlns="http://www.w3.org/2000/svg" width="16.03" height="16" viewBox="0 0 16.03 16">
  <defs>
    <style>
      .cls-1 {
        fill: #c2c2c2;
        fill-rule: evenodd;
      }
    </style>
  </defs>
  <path id="Phone" class="cls-1" d="M1260.05,48.77a0.337,0.337,0,0,1,.16-0.185l3.97-1.574a0.312,0.312,0,0,1,.42.167l2.19,4.37a0.325,0.325,0,0,1-.06.389l-2.13,2.13a13.432,13.432,0,0,0,4.34,4.352l2.13-2.148a0.3,0.3,0,0,1,.38-0.055l4.37,2.185a0.315,0.315,0,0,1,.17.426l-1.57,3.963a0.424,0.424,0,0,1-.19.185,0.315,0.315,0,0,1-.13.018,0.428,0.428,0,0,1-.13-0.018,16.1,16.1,0,0,1-13.94-13.945,0.482,0.482,0,0,1-.02-0.129,0.247,0.247,0,0,1,.04-0.13h0Z" transform="translate(-1260 -47)"/>
</svg>
